<svg width="1216" height="296" viewBox="0 0 1216 296" fill="none" xmlns="http://www.w3.org/2000/svg">
<g clip-path="url(#clip0_1_1966)">
<mask id="mask0_1_1966" style="mask-type:luminance" maskUnits="userSpaceOnUse" x="0" y="0" width="1216" height="296">
<path d="M1192.97 0H23.0333C10.3124 0 0 10.3311 0 23.0753V272.925C0 285.669 10.3124 296 23.0333 296H1192.97C1205.69 296 1216 285.669 1216 272.925V23.0753C1216 10.3311 1205.69 0 1192.97 0Z" fill="white"/>
</mask>
<g mask="url(#mask0_1_1966)">
<path d="M1192.97 0H23.0333C10.3124 0 0 10.3311 0 23.0753V272.925C0 285.669 10.3124 296 23.0333 296H1192.97C1205.69 296 1216 285.669 1216 272.925V23.0753C1216 10.3311 1205.69 0 1192.97 0Z" fill="#0B0B0B"/>
<path d="M93.4739 168.688V101.252C92.2825 102.678 90.6439 103.838 88.559 104.734C86.4741 105.595 84.5052 106.027 82.6514 106.027V92.0525C84.4059 91.7867 86.2922 91.2233 88.3112 90.3608C90.3294 89.4664 92.1991 88.2562 93.9202 86.7308C95.6739 85.1728 97.0146 83.2998 97.9407 81.1116H111.989V168.688H93.4739ZM140.185 169.484C132.805 169.484 127.097 167.412 123.06 163.268C119.055 159.123 117.053 153.155 117.053 145.364V105.877C117.053 97.655 118.956 91.3554 122.761 86.9791C126.601 82.5701 132.408 80.3652 140.185 80.3652C147.995 80.3652 153.804 82.5701 157.61 86.9791C161.415 91.3554 163.318 97.655 163.318 105.877V145.364C163.318 153.155 161.316 159.123 157.311 163.268C153.307 167.412 147.598 169.484 140.185 169.484ZM140.185 153.371C141.542 153.371 142.602 152.757 143.362 151.531C144.123 150.304 144.505 148.928 144.505 147.403V104.187C144.505 102.131 144.273 100.34 143.809 98.8159C143.379 97.2571 142.171 96.4781 140.185 96.4781C138.2 96.4781 136.975 97.2571 136.512 98.8159C136.082 100.34 135.866 102.131 135.866 104.187V147.403C135.866 148.928 136.248 150.304 137.008 151.531C137.803 152.757 138.861 153.371 140.185 153.371ZM190.422 169.484C183.042 169.484 177.333 167.412 173.296 163.268C169.292 159.123 167.289 153.155 167.289 145.364V105.877C167.289 97.655 169.192 91.3554 172.998 86.9791C176.837 82.5701 182.645 80.3652 190.422 80.3652C198.232 80.3652 204.04 82.5701 207.846 86.9791C211.651 91.3554 213.554 97.655 213.554 105.877V145.364C213.554 153.155 211.552 159.123 207.548 163.268C203.544 167.412 197.835 169.484 190.422 169.484ZM190.422 153.371C191.778 153.371 192.838 152.757 193.599 151.531C194.36 150.304 194.741 148.928 194.741 147.403V104.187C194.741 102.131 194.509 100.34 194.045 98.8159C193.616 97.2571 192.407 96.4781 190.422 96.4781C188.436 96.4781 187.211 97.2571 186.748 98.8159C186.318 100.34 186.103 102.131 186.103 104.187V147.403C186.103 148.928 186.484 150.304 187.245 151.531C188.039 152.757 189.098 153.371 190.422 153.371ZM248.303 168.688L275.109 80.8124H291.193L264.337 168.688H248.303ZM237.035 142.43C230.879 142.43 226.097 140.54 222.688 136.76C219.313 132.947 217.625 127.875 217.625 121.543V103.49C217.625 96.7932 219.23 91.6546 222.44 88.074C225.65 84.4933 230.515 82.703 237.035 82.703C243.554 82.703 248.419 84.4933 251.629 88.074C254.872 91.6546 256.494 96.7932 256.494 103.49V121.543C256.494 127.875 254.79 132.947 251.381 136.76C248.005 140.54 243.223 142.43 237.035 142.43ZM237.035 129.4C238.325 129.4 239.418 128.936 240.31 128.008C241.205 127.047 241.651 125.87 241.651 124.477V100.307C241.651 98.3512 241.37 96.8099 240.808 95.6824C240.244 94.5549 238.987 93.9916 237.035 93.9916C235.115 93.9916 233.858 94.5716 233.262 95.7318C232.699 96.8593 232.418 98.3846 232.418 100.307V124.477C232.418 125.87 232.865 127.047 233.758 128.008C234.652 128.936 235.743 129.4 237.035 129.4ZM301.419 169.583C295.263 169.583 290.481 167.693 287.073 163.914C283.697 160.101 282.009 155.028 282.009 148.696V130.644C282.009 123.946 283.614 118.807 286.824 115.226C290.035 111.646 294.899 109.855 301.419 109.855C307.938 109.855 312.803 111.646 316.013 115.226C319.256 118.807 320.878 123.946 320.878 130.644V148.696C320.878 155.028 319.173 160.101 315.764 163.914C312.389 167.693 307.607 169.583 301.419 169.583ZM301.419 156.553C302.709 156.553 303.801 156.09 304.695 155.161C305.588 154.2 306.035 153.022 306.035 151.63V127.461C306.035 125.504 305.754 123.963 305.191 122.836C304.629 121.708 303.371 121.145 301.419 121.145C299.499 121.145 298.242 121.725 297.646 122.886C297.084 124.013 296.802 125.538 296.802 127.461V151.63C296.802 153.022 297.249 154.2 298.142 155.161C299.036 156.09 300.128 156.553 301.419 156.553Z" fill="white"/>
<path d="M89.5187 211.942C95.1801 211.942 98.2396 208.963 98.2396 204.208V203.95H93.6647V204.093C93.6647 206.843 92.521 207.788 89.4901 207.788C86.2591 207.788 84.9152 206.614 84.9152 202.059C84.9152 197.505 86.2591 196.33 89.4901 196.33C92.521 196.33 93.6647 197.276 93.6647 200.026V200.169H98.2396V199.911C98.2396 195.156 95.1801 192.177 89.5187 192.177C83.7715 192.177 80.3403 196.072 80.3403 202.059C80.3403 208.046 83.7715 211.942 89.5187 211.942ZM104.799 211.655V192.463H100.538V211.655H104.799ZM111.466 195.614V192.463H107.206L107.263 195.614H111.466ZM111.552 211.655V197.247H107.263V211.655H111.552ZM120.464 211.942C124.582 211.942 127.212 210.137 127.212 207.072V206.786H122.981V206.958C122.981 207.846 122.237 208.218 120.522 208.218C118.177 208.218 117.376 207.416 117.291 205.411H127.155C127.241 204.924 127.355 204.093 127.355 203.291C127.355 199.539 124.811 196.96 120.493 196.96C116.004 196.96 113.259 199.882 113.259 204.494C113.259 209.049 115.518 211.942 120.464 211.942ZM120.35 200.484C122.352 200.484 123.324 201.315 123.238 202.804H117.319C117.491 201.286 118.291 200.484 120.35 200.484ZM133.67 211.655V203.492C133.67 201.315 134.557 200.656 136.615 200.656C138.789 200.656 139.446 201.372 139.446 203.377V211.655H143.735V202.518C143.735 199.453 142.134 196.96 138.388 196.96C135.872 196.96 134.328 198.135 133.556 199.768H133.384V197.247H129.41V211.655H133.67ZM152.77 211.713C153.771 211.713 154.886 211.57 155.572 211.426V207.846H153.799C151.941 207.846 151.512 207.702 151.512 206.442V200.799H155.572V197.247H151.512V193.895H148.138L147.337 197.247H144.935V200.799H147.223V206.929C147.223 210.338 149.024 211.713 152.77 211.713ZM163.82 211.942C167.795 211.942 169.996 210.223 169.996 207.531C169.996 205.182 168.738 203.807 165.707 203.234L163.077 202.69C161.361 202.346 161.104 202.145 161.104 201.458C161.104 200.77 161.504 200.398 163.22 200.398C165.05 200.398 165.45 200.914 165.45 201.859V202.26H169.539V201.859C169.539 198.622 166.851 196.96 163.334 196.96C159.245 196.96 157.072 198.851 157.072 201.515C157.072 204.179 158.616 205.382 161.447 205.898L163.62 206.299C165.536 206.643 165.936 206.814 165.936 207.588C165.936 208.304 165.65 208.562 163.906 208.562C161.819 208.562 161.19 208.333 161.19 207.273V206.671H157.101V206.757C157.101 210.252 159.302 211.942 163.82 211.942ZM185.645 211.942C191.078 211.942 193.137 209.192 193.137 206.127C193.137 203.32 191.764 201.2 187.733 200.427L184.33 199.768C182.1 199.338 181.585 199.052 181.585 197.82C181.585 196.617 182.357 196.072 184.816 196.072C187.647 196.072 188.476 196.731 188.476 198.737V199.052H192.708V198.822C192.708 195.013 190.42 192.177 184.959 192.177C179.469 192.177 177.325 195.07 177.325 197.992C177.325 200.971 178.869 202.833 182.529 203.463L185.903 204.064C188.591 204.523 188.876 204.981 188.876 206.27C188.876 207.559 188.276 208.046 185.846 208.046C182.386 208.046 181.614 207.445 181.614 205.325V205.038H177.411V205.411C177.411 209.65 180.013 211.942 185.645 211.942ZM198.975 211.942C201.635 211.942 203.093 210.767 203.865 209.708H204.036V211.655H208.011V203.119C208.011 199.281 205.781 196.96 201.549 196.96C197.489 196.96 194.829 199.223 194.829 202.661V202.976H198.918V202.661C198.918 201.2 199.604 200.713 201.349 200.713C203.036 200.713 203.951 201.028 203.951 202.718V203.176L199.033 203.921C196.059 204.38 194.458 205.755 194.458 207.989C194.458 210.596 196.431 211.942 198.975 211.942ZM198.546 207.645C198.546 207.044 198.947 206.757 199.833 206.614L203.951 205.984C203.951 208.218 202.149 208.676 200.405 208.676C199.147 208.676 198.546 208.419 198.546 207.645ZM217.076 211.713C218.077 211.713 219.192 211.57 219.879 211.426V207.846H218.106C216.247 207.846 215.818 207.702 215.818 206.442V200.799H219.879V197.247H215.818V193.895H212.444L211.644 197.247H209.242V200.799H211.529V206.929C211.529 210.338 213.331 211.713 217.076 211.713ZM225.839 195.614V192.463H221.578L221.635 195.614H225.839ZM225.924 211.655V197.247H221.635V211.655H225.924ZM233.405 211.655V200.799H236.607V197.247H233.233V196.989C233.233 196.015 233.748 195.671 234.834 195.671H236.607V192.463C236.15 192.406 235.721 192.406 235.263 192.406C231.432 192.406 229.402 194.211 229.144 197.247H227.028V200.799H229.116V211.655H233.405ZM242.154 195.614V192.463H237.894L237.951 195.614H242.154ZM242.24 211.655V197.247H237.951V211.655H242.24ZM251.257 211.942C255.231 211.942 258.119 209.593 258.119 206.041V205.697H253.83V205.926C253.83 207.559 252.915 208.103 251.143 208.103C249.084 208.103 248.198 207.13 248.198 204.466C248.198 201.773 249.084 200.799 251.143 200.799C252.915 200.799 253.83 201.343 253.83 202.976V203.205H258.119V202.861C258.119 199.309 255.317 196.96 251.486 196.96C246.682 196.96 243.966 199.882 243.966 204.494C243.966 209.049 246.511 211.942 251.257 211.942ZM264.148 211.942C266.807 211.942 268.265 210.767 269.037 209.708H269.209V211.655H273.183V203.119C273.183 199.281 270.953 196.96 266.721 196.96C262.661 196.96 260.002 199.223 260.002 202.661V202.976H264.091V202.661C264.091 201.2 264.777 200.713 266.521 200.713C268.208 200.713 269.123 201.028 269.123 202.718V203.176L264.205 203.921C261.231 204.38 259.63 205.755 259.63 207.989C259.63 210.596 261.603 211.942 264.148 211.942ZM263.719 207.645C263.719 207.044 264.119 206.757 265.006 206.614L269.123 205.984C269.123 208.218 267.322 208.676 265.577 208.676C264.319 208.676 263.719 208.419 263.719 207.645ZM282.248 211.713C283.249 211.713 284.364 211.57 285.05 211.426V207.846H283.277C281.419 207.846 280.99 207.702 280.99 206.442V200.799H285.05V197.247H280.99V193.895H277.616L276.815 197.247H274.413V200.799H276.701V206.929C276.701 210.338 278.502 211.713 282.248 211.713ZM291.011 195.614V192.463H286.751L286.808 195.614H291.011ZM291.097 211.655V197.247H286.808V211.655H291.097ZM300.181 211.942C304.784 211.942 307.472 209.02 307.472 204.466C307.472 199.882 304.784 196.96 300.181 196.96C295.548 196.96 292.804 199.882 292.804 204.466C292.804 209.02 295.548 211.942 300.181 211.942ZM300.181 208.161C297.836 208.161 297.035 207.244 297.035 204.466C297.035 201.658 297.836 200.742 300.181 200.742C302.497 200.742 303.297 201.658 303.297 204.466C303.297 207.244 302.497 208.161 300.181 208.161ZM313.69 211.655V203.492C313.69 201.315 314.576 200.656 316.635 200.656C318.808 200.656 319.466 201.372 319.466 203.377V211.655H323.755V202.518C323.755 199.453 322.154 196.96 318.408 196.96C315.892 196.96 314.348 198.135 313.576 199.768H313.404V197.247H309.43V211.655H313.69Z" fill="white"/>
<path d="M441.604 116.172L441.61 147.969L453.762 118.595L441.622 147.974L464.069 125.494L441.63 147.982L470.956 135.82L441.635 147.993L473.374 148L441.635 148.006L470.956 160.18L441.63 148.017L464.069 170.505L441.622 148.026L453.762 177.405L441.61 148.031L441.604 179.828L441.598 148.031L429.446 177.405L441.587 148.026L419.139 170.505L441.578 148.017L412.252 160.18L441.573 148.006L409.834 148L441.573 147.993L412.252 135.82L441.578 147.982L419.139 125.494L441.587 147.974L429.446 118.595L441.598 147.969L441.604 116.172Z" fill="white" stroke="white" stroke-width="4"/>
<path d="M584.023 144.419V126.616L601.001 117.117L584.023 107.569V89.715L612.319 106.673V127.262L584.023 144.419ZM626.119 154.366V86.9301C624.927 88.356 623.289 89.5161 621.205 90.4112C619.12 91.273 617.151 91.7043 615.298 91.7043V77.7298C617.051 77.4646 618.938 76.9009 620.956 76.0389C622.975 75.1438 624.845 73.9337 626.566 72.4086C628.319 70.8503 629.66 68.9771 630.587 66.7889H644.635V154.366H626.119ZM672.831 155.161C665.451 155.161 659.742 153.089 655.704 148.945C651.701 144.8 649.698 138.833 649.698 131.042V91.5547C649.698 83.3327 651.601 77.0336 655.407 72.6572C659.246 68.2477 665.054 66.043 672.831 66.043C680.641 66.043 686.449 68.2477 690.254 72.6572C694.06 77.0336 695.963 83.3327 695.963 91.5547V131.042C695.963 138.833 693.961 144.8 689.957 148.945C685.953 153.089 680.244 155.161 672.831 155.161ZM672.831 139.048C674.187 139.048 675.247 138.435 676.008 137.209C676.769 135.982 677.149 134.606 677.149 133.081V89.8646C677.149 87.8085 676.918 86.0182 676.455 84.4936C676.025 82.9349 674.817 82.1559 672.831 82.1559C670.845 82.1559 669.621 82.9349 669.157 84.4936C668.727 86.0182 668.513 87.8085 668.513 89.8646V133.081C668.513 134.606 668.893 135.982 669.654 137.209C670.448 138.435 671.507 139.048 672.831 139.048ZM723.067 155.161C715.687 155.161 709.979 153.089 705.941 148.945C701.937 144.8 699.935 138.833 699.935 131.042V91.5547C699.935 83.3327 701.838 77.0336 705.644 72.6572C709.482 68.2477 715.29 66.043 723.067 66.043C730.877 66.043 736.686 68.2477 740.491 72.6572C744.297 77.0336 746.2 83.3327 746.2 91.5547V131.042C746.2 138.833 744.198 144.8 740.194 148.945C736.189 153.089 730.48 155.161 723.067 155.161ZM723.067 139.048C724.424 139.048 725.483 138.435 726.244 137.209C727.005 135.982 727.386 134.606 727.386 133.081V89.8646C727.386 87.8085 727.155 86.0182 726.691 84.4936C726.261 82.9349 725.053 82.1559 723.067 82.1559C721.082 82.1559 719.857 82.9349 719.394 84.4936C718.963 86.0182 718.749 87.8085 718.749 89.8646V133.081C718.749 134.606 719.129 135.982 719.89 137.209C720.685 138.435 721.743 139.048 723.067 139.048Z" fill="white"/>
<path d="M567.923 197.62C573.585 197.62 576.644 194.641 576.644 189.885V189.628H572.069V189.771C572.069 192.521 570.926 193.466 567.895 193.466C564.664 193.466 563.32 192.292 563.32 187.737C563.32 183.182 564.664 182.008 567.895 182.008C570.926 182.008 572.069 182.953 572.069 185.703V185.846H576.644V185.589C576.644 180.834 573.585 177.854 567.923 177.854C562.176 177.854 558.745 181.75 558.745 187.737C558.745 193.724 562.176 197.62 567.923 197.62ZM583.203 197.333V178.141H578.943V197.333H583.203ZM589.871 181.292V178.141H585.611L585.668 181.292H589.871ZM589.957 197.333V182.925H585.668V197.333H589.957ZM598.869 197.62C602.987 197.62 605.617 195.815 605.617 192.75V192.464H601.385V192.635C601.385 193.523 600.642 193.896 598.926 193.896C596.582 193.896 595.781 193.094 595.695 191.089H605.56C605.646 190.602 605.76 189.771 605.76 188.969C605.76 185.216 603.215 182.638 598.898 182.638C594.409 182.638 591.664 185.56 591.664 190.172C591.664 194.726 593.923 197.62 598.869 197.62ZM598.755 186.162C600.756 186.162 601.728 186.992 601.643 188.482H595.724C595.895 186.964 596.696 186.162 598.755 186.162ZM612.075 197.333V189.169C612.075 186.992 612.962 186.333 615.02 186.333C617.193 186.333 617.851 187.05 617.851 189.055V197.333H622.14V188.195C622.14 185.13 620.539 182.638 616.793 182.638C614.277 182.638 612.733 183.813 611.961 185.445H611.789V182.925H607.815V197.333H612.075ZM631.175 197.39C632.175 197.39 633.29 197.247 633.977 197.104V193.523H632.204C630.345 193.523 629.916 193.38 629.916 192.12V186.477H633.977V182.925H629.916V179.573H626.542L625.742 182.925H623.34V186.477H625.627V192.607C625.627 196.016 627.429 197.39 631.175 197.39ZM642.225 197.62C646.199 197.62 648.401 195.901 648.401 193.208C648.401 190.859 647.143 189.484 644.112 188.912L641.482 188.367C639.766 188.024 639.509 187.823 639.509 187.136C639.509 186.448 639.909 186.076 641.625 186.076C643.454 186.076 643.855 186.591 643.855 187.537V187.938H647.944V187.537C647.944 184.3 645.256 182.638 641.739 182.638C637.65 182.638 635.477 184.529 635.477 187.193C635.477 189.857 637.021 191.06 639.852 191.576L642.025 191.977C643.941 192.32 644.341 192.492 644.341 193.266C644.341 193.982 644.055 194.24 642.311 194.24C640.223 194.24 639.594 194.01 639.594 192.95V192.349H635.506V192.435C635.506 195.93 637.707 197.62 642.225 197.62ZM660.104 197.333V191.633H664.622C668.739 191.633 671.685 189.198 671.685 184.901C671.685 180.633 668.739 178.141 664.622 178.141H655.815V197.333H660.104ZM664.794 182.008C666.767 182.008 667.424 182.581 667.424 184.901C667.424 187.193 666.767 187.794 664.794 187.794H660.104V182.008H664.794ZM677.722 197.333V188.31C677.722 186.734 678.352 186.276 679.667 186.276C681.011 186.276 681.497 186.763 681.497 188.31V189.083H685.757V187.766C685.757 184.873 684.642 182.638 681.64 182.638C679.61 182.638 678.323 183.784 677.608 185.245H677.437V182.925H673.462V197.333H677.722ZM694.314 197.62C698.917 197.62 701.605 194.698 701.605 190.143C701.605 185.56 698.917 182.638 694.314 182.638C689.682 182.638 686.937 185.56 686.937 190.143C686.937 194.698 689.682 197.62 694.314 197.62ZM694.314 193.838C691.969 193.838 691.168 192.922 691.168 190.143C691.168 187.336 691.969 186.419 694.314 186.419C696.63 186.419 697.43 187.336 697.43 190.143C697.43 192.922 696.63 193.838 694.314 193.838ZM708.076 181.292V178.141H703.787V181.292H708.076ZM701.014 202.146C701.386 202.174 701.843 202.203 702.243 202.203C705.76 202.203 708.076 200.971 708.076 196.617V182.925H703.787V197.276C703.787 198.336 703.559 198.536 702.158 198.536H701.014V202.146ZM717.234 197.62C721.352 197.62 723.982 195.815 723.982 192.75V192.464H719.75V192.635C719.75 193.523 719.007 193.896 717.291 193.896C714.947 193.896 714.146 193.094 714.06 191.089H723.925C724.011 190.602 724.125 189.771 724.125 188.969C724.125 185.216 721.58 182.638 717.263 182.638C712.774 182.638 710.029 185.56 710.029 190.172C710.029 194.726 712.288 197.62 717.234 197.62ZM717.12 186.162C719.121 186.162 720.093 186.992 720.008 188.482H714.089C714.26 186.964 715.061 186.162 717.12 186.162ZM733.125 197.62C737.099 197.62 739.987 195.271 739.987 191.719V191.375H735.698V191.604C735.698 193.237 734.783 193.781 733.01 193.781C730.952 193.781 730.065 192.807 730.065 190.143C730.065 187.451 730.952 186.477 733.01 186.477C734.783 186.477 735.698 187.021 735.698 188.654V188.883H739.987V188.539C739.987 184.987 737.185 182.638 733.353 182.638C728.55 182.638 725.833 185.56 725.833 190.172C725.833 194.726 728.378 197.62 733.125 197.62ZM748.451 197.39C749.451 197.39 750.567 197.247 751.253 197.104V193.523H749.48C747.621 193.523 747.193 193.38 747.193 192.12V186.477H751.253V182.925H747.193V179.573H743.819L743.018 182.925H740.616V186.477H742.904V192.607C742.904 196.016 744.705 197.39 748.451 197.39ZM759.501 197.62C763.475 197.62 765.677 195.901 765.677 193.208C765.677 190.859 764.419 189.484 761.388 188.912L758.758 188.367C757.042 188.024 756.785 187.823 756.785 187.136C756.785 186.448 757.185 186.076 758.901 186.076C760.731 186.076 761.131 186.591 761.131 187.537V187.938H765.22V187.537C765.22 184.3 762.532 182.638 759.015 182.638C754.926 182.638 752.753 184.529 752.753 187.193C752.753 189.857 754.297 191.06 757.128 191.576L759.301 191.977C761.217 192.32 761.617 192.492 761.617 193.266C761.617 193.982 761.331 194.24 759.587 194.24C757.5 194.24 756.87 194.01 756.87 192.95V192.349H752.782V192.435C752.782 195.93 754.983 197.62 759.501 197.62ZM602.353 226.265C608.014 226.265 611.074 223.286 611.074 218.531V218.273H606.499V218.416C606.499 221.166 605.355 222.111 602.324 222.111C599.093 222.111 597.749 220.937 597.749 216.382C597.749 211.828 599.093 210.653 602.324 210.653C605.355 210.653 606.499 211.598 606.499 214.348V214.492H611.074V214.234C611.074 209.479 608.014 206.5 602.353 206.5C596.606 206.5 593.174 210.395 593.174 216.382C593.174 222.369 596.606 226.265 602.353 226.265ZM620.178 226.265C624.782 226.265 627.469 223.343 627.469 218.788C627.469 214.205 624.782 211.283 620.178 211.283C615.546 211.283 612.801 214.205 612.801 218.788C612.801 223.343 615.546 226.265 620.178 226.265ZM620.178 222.484C617.833 222.484 617.033 221.567 617.033 218.788C617.033 215.981 617.833 215.065 620.178 215.065C622.494 215.065 623.295 215.981 623.295 218.788C623.295 221.567 622.494 222.484 620.178 222.484ZM633.688 225.978V217.643C633.688 215.609 634.545 214.979 636.49 214.979C638.548 214.979 639.177 215.695 639.177 217.7V225.978H643.466V217.7C643.466 215.609 644.296 214.979 646.24 214.979C648.327 214.979 648.928 215.695 648.928 217.7V225.978H653.217V216.841C653.217 213.776 651.701 211.283 647.984 211.283C645.325 211.283 643.895 212.515 643.095 214.091H642.952C642.237 212.401 640.75 211.283 638.291 211.283C635.832 211.283 634.345 212.458 633.573 214.091H633.402V211.57H629.427V225.978H633.688ZM659.791 230.791V224.088H659.934C660.591 225.32 661.992 226.265 664.28 226.265C668.168 226.265 670.37 223.314 670.37 218.788C670.37 214.234 668.254 211.283 664.194 211.283C662.049 211.283 660.391 212.143 659.619 213.69H659.476V211.57H655.502V230.791H659.791ZM659.791 219.934V217.614C659.791 215.666 660.906 214.95 662.936 214.95C665.423 214.95 666.081 216.153 666.081 218.788C666.081 221.395 665.423 222.598 662.936 222.598C660.906 222.598 659.791 221.882 659.791 219.934ZM676.829 225.978V206.786H672.569V225.978H676.829ZM686.016 226.265C690.133 226.265 692.764 224.46 692.764 221.395V221.109H688.532V221.281C688.532 222.169 687.789 222.541 686.073 222.541C683.729 222.541 682.928 221.739 682.842 219.734H692.707C692.793 219.247 692.907 218.416 692.907 217.614C692.907 213.861 690.362 211.283 686.045 211.283C681.556 211.283 678.811 214.205 678.811 218.817C678.811 223.372 681.069 226.265 686.016 226.265ZM685.902 214.807C687.903 214.807 688.875 215.637 688.79 217.127H682.871C683.042 215.609 683.843 214.807 685.902 214.807ZM701.484 226.036C702.485 226.036 703.6 225.892 704.286 225.749V222.169H702.513C700.655 222.169 700.226 222.025 700.226 220.765V215.122H704.286V211.57H700.226V208.218H696.852L696.051 211.57H693.65V215.122H695.937V221.252C695.937 224.661 697.738 226.036 701.484 226.036ZM712.571 226.265C716.688 226.265 719.319 224.46 719.319 221.395V221.109H715.087V221.281C715.087 222.169 714.344 222.541 712.628 222.541C710.284 222.541 709.483 221.739 709.397 219.734H719.262C719.348 219.247 719.462 218.416 719.462 217.614C719.462 213.861 716.917 211.283 712.6 211.283C708.111 211.283 705.366 214.205 705.366 218.817C705.366 223.372 707.624 226.265 712.571 226.265ZM712.457 214.807C714.458 214.807 715.43 215.637 715.345 217.127H709.426C709.597 215.609 710.398 214.807 712.457 214.807ZM727.404 226.265C729.52 226.265 731.149 225.405 731.893 223.859H732.036V225.978H736.01V206.786H731.75V213.46H731.578C730.921 212.257 729.605 211.283 727.404 211.283C723.487 211.283 721.17 214.234 721.17 218.788C721.17 223.314 723.344 226.265 727.404 226.265ZM725.431 218.788C725.431 216.153 726.117 214.95 728.605 214.95C730.635 214.95 731.75 215.666 731.75 217.614V219.934C731.75 221.882 730.635 222.598 728.605 222.598C726.117 222.598 725.431 221.395 725.431 218.788Z" fill="white"/>
<path d="M887.974 116.172L887.982 147.969L900.134 118.595L887.99 147.974L910.435 125.494L887.998 147.982L917.329 135.82L888.006 147.993L919.744 148L888.006 148.006L917.329 160.18L887.998 148.017L910.435 170.505L887.99 148.026L900.134 177.405L887.982 148.031L887.974 179.828L887.966 148.031L875.814 177.405L887.958 148.026L865.512 170.505L887.95 148.017L858.618 160.18L887.942 148.006L856.204 148L887.942 147.993L858.618 135.82L887.95 147.982L865.512 125.494L887.958 147.974L875.814 118.595L887.966 147.969L887.974 116.172Z" fill="white" stroke="white" stroke-width="4"/>
<path d="M1006.56 158.742V140.938L1023.54 131.44L1006.56 121.891V104.037L1034.86 120.995V141.585L1006.56 158.742ZM1039.68 168.688V164.51C1039.68 160.167 1040.34 156.272 1041.66 152.823C1043.02 149.343 1044.76 146.127 1046.87 143.176C1048.99 140.192 1051.22 137.274 1053.58 134.423C1055.86 131.638 1058.02 128.787 1060.08 125.87C1062.16 122.918 1063.85 119.736 1065.14 116.321C1066.47 112.873 1067.13 109.01 1067.13 104.734C1067.13 102.678 1066.82 100.921 1066.19 99.462C1065.58 97.9701 1064.33 97.2245 1062.41 97.2245C1059.5 97.2245 1058.04 99.8264 1058.04 105.032V115.725H1039.68C1039.64 114.961 1039.6 114.1 1039.53 113.138C1039.49 112.176 1039.48 111.248 1039.48 110.354C1039.48 104.054 1040.14 98.7156 1041.46 94.3393C1042.79 89.9303 1045.12 86.5812 1048.46 84.2944C1051.84 81.9733 1056.57 80.8124 1062.66 80.8124C1069.91 80.8124 1075.54 82.8518 1079.54 86.9298C1083.57 91.0077 1085.59 96.8267 1085.59 104.386C1085.59 109.524 1084.93 114.033 1083.61 117.913C1082.29 121.758 1080.53 125.273 1078.35 128.456C1076.16 131.605 1073.77 134.754 1071.14 137.904C1069.29 140.125 1067.49 142.396 1065.74 144.717C1064.02 147.038 1062.49 149.525 1061.17 152.177H1085V168.688H1039.68ZM1111.95 169.484C1104.57 169.484 1098.86 167.412 1094.83 163.268C1090.83 159.123 1088.82 153.155 1088.82 145.364V105.877C1088.82 97.655 1090.72 91.3554 1094.53 86.9791C1098.37 82.5701 1104.18 80.3652 1111.95 80.3652C1119.76 80.3652 1125.57 82.5701 1129.38 86.9791C1133.18 91.3554 1135.08 97.655 1135.08 105.877V145.364C1135.08 153.155 1133.08 159.123 1129.08 163.268C1125.07 167.412 1119.36 169.484 1111.95 169.484ZM1111.95 153.371C1113.31 153.371 1114.37 152.757 1115.13 151.531C1115.89 150.304 1116.27 148.928 1116.27 147.403V104.187C1116.27 102.131 1116.04 100.34 1115.57 98.8159C1115.15 97.2571 1113.94 96.4781 1111.95 96.4781C1109.97 96.4781 1108.74 97.2571 1108.28 98.8159C1107.85 100.34 1107.63 102.131 1107.63 104.187V147.403C1107.63 148.928 1108.01 150.304 1108.78 151.531C1109.57 152.757 1110.63 153.371 1111.95 153.371Z" fill="white"/>
<path d="M1021.56 211.656L1023.13 207.388H1031.25L1032.8 211.656H1037.45L1030.39 192.464H1024.16L1017.1 211.656H1021.56ZM1025.62 200.57L1027.08 196.245H1027.37L1028.76 200.57L1029.85 203.55H1024.53L1025.62 200.57ZM1042.92 211.656V202.633C1042.92 201.057 1043.54 200.599 1044.86 200.599C1046.2 200.599 1046.69 201.086 1046.69 202.633V203.406H1050.95V202.089C1050.95 199.195 1049.83 196.961 1046.83 196.961C1044.8 196.961 1043.51 198.107 1042.8 199.568H1042.63V197.248H1038.65V211.656H1042.92ZM1059.53 211.713C1060.53 211.713 1061.65 211.57 1062.33 211.427V207.846H1060.56C1058.7 207.846 1058.27 207.703 1058.27 206.443V200.8H1062.33V197.248H1058.27V193.896H1054.89L1054.1 197.248H1051.69V200.8H1053.98V206.93C1053.98 210.338 1055.78 211.713 1059.53 211.713ZM1068.29 195.615V192.464H1064.03L1064.09 195.615H1068.29ZM1068.38 211.656V197.248H1064.09V211.656H1068.38ZM1077.03 211.943C1081 211.943 1083.21 210.224 1083.21 207.531C1083.21 205.182 1081.95 203.807 1078.92 203.234L1076.28 202.69C1074.57 202.346 1074.31 202.146 1074.31 201.458C1074.31 200.771 1074.71 200.399 1076.43 200.399C1078.26 200.399 1078.66 200.914 1078.66 201.859V202.261H1082.75V201.859C1082.75 198.623 1080.06 196.961 1076.55 196.961C1072.45 196.961 1070.28 198.852 1070.28 201.516C1070.28 204.18 1071.83 205.383 1074.65 205.898L1076.83 206.299C1078.75 206.643 1079.14 206.815 1079.14 207.589C1079.14 208.305 1078.86 208.562 1077.12 208.562C1075.03 208.562 1074.4 208.333 1074.4 207.273V206.672H1070.31V206.758C1070.31 210.253 1072.51 211.943 1077.03 211.943ZM1089.35 211.656V202.633C1089.35 201.057 1089.98 200.599 1091.29 200.599C1092.64 200.599 1093.13 201.086 1093.13 202.633V203.406H1097.39V202.089C1097.39 199.195 1096.27 196.961 1093.27 196.961C1091.24 196.961 1089.95 198.107 1089.24 199.568H1089.06V197.248H1085.09V211.656H1089.35ZM1105.96 211.713C1106.97 211.713 1108.09 211.57 1108.77 211.427V207.846H1107C1105.14 207.846 1104.71 207.703 1104.71 206.443V200.8H1108.77V197.248H1104.71V193.896H1101.33L1100.53 197.248H1098.13V200.8H1100.42V206.93C1100.42 210.338 1102.22 211.713 1105.96 211.713ZM1117.01 211.943C1120.99 211.943 1123.19 210.224 1123.19 207.531C1123.19 205.182 1121.94 203.807 1118.9 203.234L1116.27 202.69C1114.56 202.346 1114.3 202.146 1114.3 201.458C1114.3 200.771 1114.7 200.399 1116.42 200.399C1118.24 200.399 1118.65 200.914 1118.65 201.859V202.261H1122.73V201.859C1122.73 198.623 1120.05 196.961 1116.53 196.961C1112.44 196.961 1110.27 198.852 1110.27 201.516C1110.27 204.18 1111.81 205.383 1114.65 205.898L1116.81 206.299C1118.73 206.643 1119.13 206.815 1119.13 207.589C1119.13 208.305 1118.85 208.562 1117.1 208.562C1115.01 208.562 1114.38 208.333 1114.38 207.273V206.672H1110.29V206.758C1110.29 210.253 1112.5 211.943 1117.01 211.943Z" fill="white"/>
</g>
<path d="M1192.97 0.397461H23.0332C10.5315 0.397461 0.396973 10.5505 0.396973 23.0749V272.924C0.396973 285.449 10.5315 295.602 23.0332 295.602H1192.97C1205.47 295.602 1215.6 285.449 1215.6 272.924V23.0749C1215.6 10.5505 1205.47 0.397461 1192.97 0.397461Z" stroke="url(#paint0_linear_1_1966)"/>
</g>
<defs>
<linearGradient id="paint0_linear_1_1966" x1="-0.000153361" y1="148" x2="1216" y2="148" gradientUnits="userSpaceOnUse">
<stop stop-color="#DF9019"/>
<stop offset="0.380208" stop-color="#FEE818"/>
<stop offset="0.758263" stop-color="#4CB4CD"/>
<stop offset="1" stop-color="#03942B"/>
</linearGradient>
<clipPath id="clip0_1_1966">
<rect width="1216" height="296" fill="white"/>
</clipPath>
</defs>
</svg>
