<svg width="30" height="31" viewBox="0 0 30 31" fill="none" xmlns="http://www.w3.org/2000/svg">
<path d="M15 20.275C17.5888 20.275 19.6875 18.1137 19.6875 15.4475C19.6875 12.7814 17.5888 10.6201 15 10.6201C12.4112 10.6201 10.3125 12.7814 10.3125 15.4475C10.3125 18.1137 12.4112 20.275 15 20.275Z" stroke="white" stroke-width="1.2" stroke-miterlimit="10"/>
<path d="M20.1562 4.34473H9.84375C6.73715 4.34473 4.21875 6.9383 4.21875 10.1376V20.758C4.21875 23.9573 6.73715 26.5509 9.84375 26.5509H20.1562C23.2629 26.5509 25.7812 23.9573 25.7812 20.758V10.1376C25.7812 6.9383 23.2629 4.34473 20.1562 4.34473Z" stroke="white" stroke-width="1.2" stroke-linecap="round" stroke-linejoin="round"/>
<path d="M21.0938 10.6201C21.8704 10.6201 22.5 9.97169 22.5 9.17186C22.5 8.37203 21.8704 7.72363 21.0938 7.72363C20.3171 7.72363 19.6875 8.37203 19.6875 9.17186C19.6875 9.97169 20.3171 10.6201 21.0938 10.6201Z" fill="white"/>
</svg>
