<svg width="31" height="31" viewBox="0 0 31 31" fill="none" xmlns="http://www.w3.org/2000/svg">
<path d="M11.7094 15.0615C12.6741 17.1131 14.285 18.7679 16.2797 19.7561C16.4268 19.8279 16.5895 19.8589 16.7519 19.8462C16.9142 19.8335 17.0705 19.7775 17.2054 19.6837L20.1351 17.6683C20.2646 17.5779 20.4141 17.5227 20.5699 17.5079C20.7256 17.4932 20.8825 17.5193 21.0258 17.5838L26.5101 20.0096C26.6976 20.0899 26.8542 20.2315 26.9558 20.4125C27.0575 20.5935 27.0985 20.8039 27.0726 21.0113C26.8988 22.4085 26.2366 23.6926 25.2099 24.6234C24.1832 25.5541 22.8623 26.0677 21.4945 26.068C17.2676 26.068 13.2139 24.3387 10.225 21.2607C7.23613 18.1826 5.55701 14.0078 5.55701 9.65475C5.55732 8.2461 6.05601 6.88584 6.95977 5.82848C7.86353 4.77112 9.11044 4.08913 10.4672 3.91011C10.6685 3.88348 10.8728 3.92575 11.0486 4.03042C11.2243 4.1351 11.3618 4.29637 11.4398 4.48941L13.7953 10.1496C13.8565 10.2948 13.8822 10.4533 13.8699 10.6112C13.8576 10.769 13.8079 10.9213 13.725 11.0547L11.7679 14.1201C11.6808 14.2588 11.6297 14.4181 11.6194 14.5829C11.6092 14.7477 11.6401 14.9125 11.7094 15.0615Z" stroke="white" stroke-width="1.2" stroke-linecap="round" stroke-linejoin="round"/>
</svg>
