<svg width="48" height="48" viewBox="0 0 48 48" fill="none" xmlns="http://www.w3.org/2000/svg">
<circle cx="24.4087" cy="24" r="23.5" fill="url(#paint0_linear_27_12)"/>
<path d="M34.7129 33.7949L30.6113 29.6934C30.4062 29.5293 30.1602 29.4062 29.9141 29.4062H29.2578C30.3652 27.9707 31.0625 26.166 31.0625 24.1562C31.0625 19.4805 27.207 15.625 22.5312 15.625C17.8145 15.625 14 19.4805 14 24.1562C14 28.873 17.8145 32.6875 22.5312 32.6875C24.5 32.6875 26.3047 32.0312 27.7812 30.8828V31.5801C27.7812 31.8262 27.8633 32.0723 28.0684 32.2773L32.1289 36.3379C32.5391 36.748 33.1543 36.748 33.5234 36.3379L34.6719 35.1895C35.082 34.8203 35.082 34.2051 34.7129 33.7949ZM22.5312 29.4062C19.6191 29.4062 17.2812 27.0684 17.2812 24.1562C17.2812 21.2852 19.6191 18.9062 22.5312 18.9062C25.4023 18.9062 27.7812 21.2852 27.7812 24.1562C27.7812 27.0684 25.4023 29.4062 22.5312 29.4062Z" fill="black"/>
<defs>
<linearGradient id="paint0_linear_27_12" x1="0.908691" y1="24" x2="47.9087" y2="24" gradientUnits="userSpaceOnUse">
<stop stop-color="#DF9019"/>
<stop offset="0.380208" stop-color="#FEE818"/>
<stop offset="0.758263" stop-color="#4CB4CD"/>
<stop offset="1" stop-color="#03942B"/>
</linearGradient>
</defs>
</svg>
