<svg width="22" height="22" viewBox="0 0 22 22" fill="none" xmlns="http://www.w3.org/2000/svg">
<path d="M20.7129 18.7949L16.6113 14.6934C16.4062 14.5293 16.1602 14.4062 15.9141 14.4062H15.2578C16.3652 12.9707 17.0625 11.166 17.0625 9.15625C17.0625 4.48047 13.207 0.625 8.53125 0.625C3.81445 0.625 0 4.48047 0 9.15625C0 13.873 3.81445 17.6875 8.53125 17.6875C10.5 17.6875 12.3047 17.0312 13.7812 15.8828V16.5801C13.7812 16.8262 13.8633 17.0723 14.0684 17.2773L18.1289 21.3379C18.5391 21.748 19.1543 21.748 19.5234 21.3379L20.6719 20.1895C21.082 19.8203 21.082 19.2051 20.7129 18.7949ZM8.53125 14.4062C5.61914 14.4062 3.28125 12.0684 3.28125 9.15625C3.28125 6.28516 5.61914 3.90625 8.53125 3.90625C11.4023 3.90625 13.7812 6.28516 13.7812 9.15625C13.7812 12.0684 11.4023 14.4062 8.53125 14.4062Z" fill="#fff"/>
</svg>
