<svg width="438" height="298" viewBox="0 0 438 298" fill="none" xmlns="http://www.w3.org/2000/svg">
<g filter="url(#filter0_d_1_2224)">
<rect width="208.334" height="68.6815" transform="translate(115 61)" fill="black"/>
<path d="M153.976 82.665C154.318 81.6104 155.81 81.6104 156.153 82.665L158.405 89.597C158.558 90.0686 158.998 90.3879 159.494 90.3879H166.783C167.891 90.3879 168.353 91.8069 167.455 92.4587L161.559 96.7429C161.158 97.0343 160.99 97.551 161.143 98.0227L163.395 104.955C163.738 106.009 162.531 106.886 161.634 106.234L155.737 101.95C155.336 101.659 154.793 101.659 154.391 101.95L148.495 106.234C147.598 106.886 146.391 106.009 146.733 104.955L148.986 98.0227C149.139 97.551 148.971 97.0343 148.57 96.7429L142.673 92.4587C141.776 91.8069 142.237 90.3879 143.346 90.3879H150.635C151.131 90.3879 151.57 90.0686 151.723 89.597L153.976 82.665Z" fill="#F7871B"/>
<path d="M186.027 82.665C186.37 81.6104 187.862 81.6104 188.204 82.665L190.457 89.597C190.61 90.0686 191.049 90.3879 191.545 90.3879H198.834C199.943 90.3879 200.404 91.8069 199.507 92.4587L193.61 96.7429C193.209 97.0343 193.041 97.551 193.194 98.0227L195.447 104.955C195.789 106.009 194.582 106.886 193.685 106.234L187.788 101.95C187.387 101.659 186.844 101.659 186.443 101.95L180.546 106.234C179.649 106.886 178.442 106.009 178.785 104.955L181.037 98.0227C181.19 97.551 181.022 97.0343 180.621 96.7429L174.724 92.4587C173.827 91.8069 174.288 90.3879 175.397 90.3879H182.686C183.182 90.3879 183.621 90.0686 183.775 89.597L186.027 82.665Z" fill="#F7871B"/>
<path d="M218.078 82.665C218.421 81.6104 219.913 81.6104 220.255 82.665L222.508 89.597C222.661 90.0686 223.101 90.3879 223.596 90.3879H230.885C231.994 90.3879 232.455 91.8069 231.558 92.4587L225.661 96.7429C225.26 97.0343 225.092 97.551 225.245 98.0227L227.498 104.955C227.84 106.009 226.633 106.886 225.736 106.234L219.84 101.95C219.438 101.659 218.895 101.659 218.494 101.95L212.597 106.234C211.7 106.886 210.493 106.009 210.836 104.955L213.088 98.0227C213.241 97.551 213.073 97.0343 212.672 96.7429L206.776 92.4587C205.879 91.8069 206.34 90.3879 207.448 90.3879H214.737C215.233 90.3879 215.673 90.0686 215.826 89.597L218.078 82.665Z" fill="#F7871B"/>
<path d="M250.13 82.665C250.472 81.6104 251.964 81.6104 252.307 82.665L254.559 89.597C254.713 90.0686 255.152 90.3879 255.648 90.3879H262.937C264.046 90.3879 264.507 91.8069 263.609 92.4587L257.713 96.7429C257.312 97.0343 257.144 97.551 257.297 98.0227L259.549 104.955C259.892 106.009 258.685 106.886 257.788 106.234L251.891 101.95C251.49 101.659 250.947 101.659 250.545 101.95L244.649 106.234C243.752 106.886 242.545 106.009 242.887 104.955L245.14 98.0227C245.293 97.551 245.125 97.0343 244.724 96.7429L238.827 92.4587C237.93 91.8069 238.391 90.3879 239.5 90.3879H246.789C247.285 90.3879 247.724 90.0686 247.877 89.597L250.13 82.665Z" fill="#F7871B"/>
<path d="M282.181 82.665C282.524 81.6104 284.016 81.6104 284.358 82.665L286.611 89.597C286.764 90.0686 287.203 90.3879 287.699 90.3879H294.988C296.097 90.3879 296.558 91.8069 295.661 92.4587L289.764 96.7429C289.363 97.0344 289.195 97.551 289.348 98.0227L291.601 104.955C291.943 106.009 290.736 106.886 289.839 106.234L283.942 101.95C283.541 101.659 282.998 101.659 282.597 101.95L276.7 106.234C275.803 106.886 274.596 106.009 274.939 104.955L277.191 98.0227C277.344 97.551 277.176 97.0344 276.775 96.7429L270.878 92.4587C269.981 91.8069 270.442 90.3879 271.551 90.3879H278.84C279.336 90.3879 279.775 90.0686 279.929 89.597L282.181 82.665Z" fill="#F7871B"/>
</g>
<defs>
<filter id="filter0_d_1_2224" x="0.530884" y="0.331367" width="437.272" height="297.62" filterUnits="userSpaceOnUse" color-interpolation-filters="sRGB">
<feFlood flood-opacity="0" result="BackgroundImageFix"/>
<feColorMatrix in="SourceAlpha" type="matrix" values="0 0 0 0 0 0 0 0 0 0 0 0 0 0 0 0 0 0 127 0" result="hardAlpha"/>
<feOffset dy="53.8005"/>
<feGaussianBlur stdDeviation="57.2346"/>
<feComposite in2="hardAlpha" operator="out"/>
<feColorMatrix type="matrix" values="0 0 0 0 0.0833333 0 0 0 0 0.0833333 0 0 0 0 0.0833333 0 0 0 0.15 0"/>
<feBlend mode="normal" in2="BackgroundImageFix" result="effect1_dropShadow_1_2224"/>
<feBlend mode="normal" in="SourceGraphic" in2="effect1_dropShadow_1_2224" result="shape"/>
</filter>
</defs>
</svg>
